<svg xmlns="http://www.w3.org/2000/svg" viewBox="0 0 913 268"><defs><style>.cls-1{fill:#fc4c69;}.cls-2{fill:#ed1544;}.cls-3{fill:#262626;}</style></defs><g id="Layer_2" data-name="Layer 2"><path class="cls-1" d="M190.47,221.05a113,113,0,0,1-124.93,8,235,235,0,0,0,57.26,4.63A230.74,230.74,0,0,0,190.47,221.05Z"/><path class="cls-1" d="M199.21,54.26c0,18.34-34.19,33.2-76.34,33.2S46.53,72.6,46.53,54.26a17,17,0,0,1,3.62-10.13s0,0,0,0a29,29,0,0,1,5.26-5.41c5.08-4.17,12.14-7.82,20.66-10.65a.34.34,0,0,1,.2-.08,19.84,19.84,0,0,0-1.44,5.74,15.44,15.44,0,0,0-.1,1.92c0,15.89,19,28.78,42.49,28.78s42.52-12.89,42.52-28.78a20,20,0,0,0-.51-4.49,22.44,22.44,0,0,0-2.83-6.7c2.33.48,4.61,1,6.79,1.64C174,29,182.88,33,189.17,37.79a27.4,27.4,0,0,1,8.33,9.48A15.47,15.47,0,0,1,199.21,54.26Z"/><path class="cls-1" d="M153,38c0,8.93-12.44,16.18-27.78,16.18S97.4,46.94,97.4,38a11.54,11.54,0,0,1,3.91-8.28c4.85-4.73,13.73-7.9,23.86-7.9s19.21,3.24,24,8.06A11.55,11.55,0,0,1,153,38Z"/><path class="cls-2" d="M229,95.6c-11.13,10.87-58.41,103.32-176.59,95.51-14.32-2.59-20.24-8.44-32.76-12.62,0,0,91.16-8.64,132.91-47.15C189.83,116.28,211.05,112.88,229,95.6Z"/><path class="cls-1" d="M229.14,95.45s-.09.12-.29.34-.43.48-.62.72c-15.32,17.28-42.44,30.25-74.95,35a191.5,191.5,0,0,1-27.92,2c-49.23,0-91.31-18.29-108.29-44.14A113.28,113.28,0,0,1,32,63c11.13,21.51,44.62,37.12,84.23,37.12,45.3,0,82.61-20.43,87.58-46.72A113,113,0,0,1,229.14,95.45Z"/><path class="cls-1" d="M229.21,166.8A113,113,0,0,1,205.76,207,232.5,232.5,0,0,1,140,218.94c-43.16,1.68-82.73-8-112-25a114.59,114.59,0,0,1-8.54-15.25,220,220,0,0,0,34.37,10.21,273.22,273.22,0,0,0,67.39,5.54C162.62,192.82,200.19,182.57,229.21,166.8Z"/><path class="cls-3" d="M318.45,73.93h-61.3l6.42-27.54h104L300.85,168.15h68.54L363,195.69H251.77Z"/><path class="cls-3" d="M415.15,162.35q10.35,10.36,23.19,10.36,16.37,0,30.44-13.67l16.15,19.05q-2.28,2.28-4.24,4t-11.8,9q-9.84,7.26-32.62,7.25-25.47,0-42.66-16.36t-17.19-41q0-24.63,16.36-40.79t40.8-16.15q16.35,0,28.78,7.5t23.81,24.18ZM452,115.14q-9.12-7.67-19.26-7.66a27.49,27.49,0,0,0-20.81,8.87,30.53,30.53,0,0,0-8.39,21.8,33.94,33.94,0,0,0,1.3,7.93Z"/><path class="cls-3" d="M554.09,84.08q25,0,41.62,16.12t16.57,40.93q0,24.8-16.46,41t-41.73,16.22q-25.47,0-42-16.12t-16.57-41.13q0-24.81,16.57-40.93T554.09,84.08Zm-29.82,57.05q0,13.2,8.6,22a28.5,28.5,0,0,0,21.22,8.77,27.86,27.86,0,0,0,21-8.77q8.39-8.78,8.39-22,0-13-8.39-21.77a27.87,27.87,0,0,0-21-8.78,28.51,28.51,0,0,0-21.22,8.78Q524.28,128.14,524.27,141.13Z"/><path class="cls-3" d="M630.09,44.74l29.81-2.9V194l-29.81,3.32Z"/><path class="cls-3" d="M716.23,162.35q10.35,10.36,23.19,10.36,16.37,0,30.44-13.67L786,178.09q-2.28,2.28-4.24,4t-11.8,9q-9.84,7.26-32.62,7.25-25.47,0-42.66-16.36T677.5,141q0-24.63,16.36-40.79t40.8-16.15q16.35,0,28.78,7.5t23.81,24.18Zm36.86-47.21q-9.12-7.67-19.26-7.66A27.49,27.49,0,0,0,713,116.35a30.53,30.53,0,0,0-8.39,21.8,33.94,33.94,0,0,0,1.3,7.93Z"/><path class="cls-3" d="M814.38,83.41l27.54,71.28L867,83.41l28,6.42-58.6,147.64-29.41-5.59L828,181.76,785.39,89.83Z"/></g></svg>