<svg id="Layer_1" data-name="Layer 1" xmlns="http://www.w3.org/2000/svg" viewBox="0 0 1080 1080"><defs><style>.cls-1{fill:#fc4c69;}.cls-2{fill:#ed1544;}.cls-3{fill:#262626;}</style></defs><path class="cls-1" d="M234.17,615.25a132.75,132.75,0,0,1-146.88,9.4,275.6,275.6,0,0,0,67.32,5.45A271.51,271.51,0,0,0,234.17,615.25Z"/><path class="cls-1" d="M244.45,419.15c0,21.56-40.2,39-89.76,39s-89.75-17.48-89.75-39a19.94,19.94,0,0,1,4.26-11.91s0,0,0,0a34.42,34.42,0,0,1,6.18-6.35c6-4.91,14.28-9.2,24.3-12.53a.36.36,0,0,1,.23-.08,23.35,23.35,0,0,0-1.7,6.74,21.37,21.37,0,0,0-.11,2.26c0,18.68,22.38,33.84,50,33.84s50-15.16,50-33.84a23.35,23.35,0,0,0-.59-5.28,26.34,26.34,0,0,0-3.33-7.87c2.74.56,5.42,1.21,8,1.92,12.61,3.41,23.11,8.15,30.51,13.77a32.22,32.22,0,0,1,9.79,11.15A18.12,18.12,0,0,1,244.45,419.15Z"/><path class="cls-1" d="M190.06,400c0,10.5-14.62,19-32.66,19s-32.65-8.53-32.65-19c0-3.55,1.66-6.88,4.6-9.73,5.7-5.56,16.14-9.29,28.05-9.29s22.58,3.81,28.25,9.48A13.55,13.55,0,0,1,190.06,400Z"/><path class="cls-2" d="M279.51,467.75c-13.09,12.79-68.68,121.49-207.62,112.3-16.84-3-23.8-9.93-38.52-14.84,0,0,107.18-10.16,156.27-55.43C233.42,492.07,258.37,488.07,279.51,467.75Z"/><path class="cls-1" d="M279.64,467.58s-.11.15-.34.4-.51.56-.73.85c-18,20.32-49.9,35.56-88.12,41.18a225.42,225.42,0,0,1-32.82,2.37c-57.89,0-107.37-21.51-127.32-51.91a133.35,133.35,0,0,1,17.55-31c13.1,25.29,52.47,43.64,99,43.64,53.26,0,97.12-24,103-54.93A133,133,0,0,1,279.64,467.58Z"/><path class="cls-1" d="M279.73,551.47a133,133,0,0,1-27.58,47.27,273.34,273.34,0,0,1-77.31,14c-50.74,2-97.26-9.4-131.64-29.41a133.37,133.37,0,0,1-10-17.92,257.28,257.28,0,0,0,40.41,12A320.38,320.38,0,0,0,152.8,584C201.43,582.06,245.6,570,279.73,551.47Z"/><path class="cls-3" d="M658.8,486.56a62.1,62.1,0,1,0,62.1,62.09A62.09,62.09,0,0,0,658.8,486.56Zm0,104.27A42.18,42.18,0,1,1,701,548.65,42.17,42.17,0,0,1,658.8,590.83Z"/><path class="cls-3" d="M571.68,574.08a62.12,62.12,0,1,1,3.68-40.14,60.49,60.49,0,0,1,1.55,19.89l-20.09.48-57.55,1.38-.47-19.91,55.92-1.35a42.14,42.14,0,1,0-6.47,40.21Z"/><path class="cls-3" d="M902.4,575.13A62.09,62.09,0,1,1,906.59,535a60.82,60.82,0,0,1,1.3,19.9l-20.1.24-57.56.66L830,535.92l55.93-.65a42.15,42.15,0,1,0-7,40.13Z"/><rect class="cls-3" x="652.59" y="498.82" width="199.47" height="23.96" transform="translate(1263.13 -241.53) rotate(90)"/><path class="cls-3" d="M1049.69,633.09h-.06c0,.89.06,1.8.06,2.69,0,34.91-27.93,63.2-62.39,63.2s-62.39-28.29-62.39-63.2c0-.89,0-1.8.07-2.69h20c0,.89-.07,1.78-.07,2.69,0,23.7,19,42.93,42.36,42.93s42.38-19.23,42.38-42.93c0-.91,0-1.8-.09-2.69h.09V611l-56.56.37a31.16,31.16,0,0,1-15.32-3.91c-1.51-.86-3-1.77-4.42-2.75a61.16,61.16,0,0,1-7.67-6.13,63.48,63.48,0,0,1-6.8-7.48l-.17-.24a63.37,63.37,0,0,1-13-38.67V494.84h20V552.2a43,43,0,0,0,16.78,34.21,23,23,0,0,0,14,4.7l53.1-.37V575.31h.08V494.47h20Z"/><path class="cls-3" d="M909.9,587.42h-.42a1.7,1.7,0,0,1,.24-.23Z"/><polygon class="cls-3" points="345.19 588.45 433.79 588.45 433.79 611.09 307.38 611.09 319.5 588.45 401.56 435.23 313.96 435.23 313.96 412.58 439.37 412.58 427.23 435.23 345.19 588.45"/></svg>