<svg id="Layer_1" data-name="Layer 1" xmlns="http://www.w3.org/2000/svg" viewBox="0 0 1054.08 342.99"><defs><style>.cls-1{fill:#fc4c69;}.cls-2{fill:#ed1544;}.cls-3{fill:#262626;}</style></defs><path class="cls-1" d="M214.87,248.61A132.75,132.75,0,0,1,68,258a275.52,275.52,0,0,0,67.31,5.45A271.58,271.58,0,0,0,214.87,248.61Z"/><path class="cls-1" d="M225.14,52.51c0,21.56-40.19,39-89.75,39s-89.76-17.48-89.76-39A20,20,0,0,1,49.89,40.6s0,0,0,0a34.74,34.74,0,0,1,6.18-6.35c6-4.91,14.28-9.2,24.3-12.53a.36.36,0,0,1,.23-.08,23.33,23.33,0,0,0-1.69,6.74,19,19,0,0,0-.12,2.26c0,18.68,22.39,33.84,50,33.84s50-15.16,50-33.84a23.36,23.36,0,0,0-.6-5.28,26.34,26.34,0,0,0-3.33-7.87c2.74.56,5.42,1.21,8,1.92,12.62,3.41,23.12,8.15,30.51,13.77a32,32,0,0,1,9.79,11.15A18.12,18.12,0,0,1,225.14,52.51Z"/><path class="cls-1" d="M170.75,33.4c0,10.5-14.62,19-32.66,19s-32.65-8.53-32.65-19c0-3.55,1.66-6.88,4.6-9.73,5.7-5.56,16.14-9.29,28.05-9.29,12.06,0,22.58,3.81,28.26,9.48A13.58,13.58,0,0,1,170.75,33.4Z"/><path class="cls-2" d="M260.21,101.11C247.12,113.9,191.53,222.6,52.58,213.41c-16.84-3-23.8-9.93-38.52-14.84,0,0,107.18-10.16,156.27-55.43C214.11,125.43,239.06,121.43,260.21,101.11Z"/><path class="cls-1" d="M260.33,100.94s-.11.15-.33.4-.51.56-.74.85c-18,20.32-49.9,35.56-88.12,41.18a225.32,225.32,0,0,1-32.82,2.37C80.43,145.74,31,124.23,11,93.83a133,133,0,0,1,17.56-31c13.09,25.29,52.47,43.64,99,43.64,53.26,0,97.12-24,103-54.93A132.93,132.93,0,0,1,260.33,100.94Z"/><path class="cls-1" d="M260.42,184.83a132.87,132.87,0,0,1-27.58,47.27,273.34,273.34,0,0,1-77.3,14c-50.75,2-97.26-9.4-131.64-29.41a134.54,134.54,0,0,1-10-17.92,257.09,257.09,0,0,0,40.42,12,320.3,320.3,0,0,0,79.22,6.52C182.12,215.42,226.3,203.37,260.42,184.83Z"/><path class="cls-3" d="M639.5,119.92A62.1,62.1,0,1,0,701.59,182,62.09,62.09,0,0,0,639.5,119.92Zm0,104.27A42.18,42.18,0,1,1,681.67,182,42.18,42.18,0,0,1,639.5,224.19Z"/><path class="cls-3" d="M552.37,207.44a62.09,62.09,0,1,1,3.69-40.14,60.76,60.76,0,0,1,1.55,19.89l-20.09.48L480,189.05l-.47-19.91,55.93-1.35A42.14,42.14,0,1,0,529,208Z"/><path class="cls-3" d="M883.09,208.49a62.1,62.1,0,1,1,4.19-40.09,60.55,60.55,0,0,1,1.3,19.9l-20.09.24-57.57.66-.22-19.92,55.94-.65a42.15,42.15,0,1,0-7,40.13Z"/><rect class="cls-3" x="633.29" y="132.18" width="199.47" height="23.96" transform="translate(877.18 -588.86) rotate(90)"/><path class="cls-3" d="M1030.39,266.45h-.07c0,.89.07,1.8.07,2.69,0,34.91-27.94,63.2-62.39,63.2s-62.39-28.29-62.39-63.2c0-.89,0-1.8.06-2.69h20c-.05.89-.08,1.78-.08,2.69,0,23.7,19,42.93,42.37,42.93s42.38-19.23,42.38-42.93c0-.91,0-1.8-.09-2.69h.09V244.37l-56.56.37a31.2,31.2,0,0,1-15.33-3.91c-1.51-.86-3-1.77-4.42-2.75a61.06,61.06,0,0,1-7.66-6.13,62.7,62.7,0,0,1-6.81-7.48l-.17-.24a63.37,63.37,0,0,1-13-38.67V128.2h20v57.36a43.14,43.14,0,0,0,9.43,27,42.44,42.44,0,0,0,7.35,7.2,23,23,0,0,0,14,4.7l53.11-.37V208.67h.08V127.83h20Z"/><path class="cls-3" d="M890.59,220.78h-.42a1.34,1.34,0,0,1,.25-.23Z"/><polygon class="cls-3" points="325.88 221.81 414.48 221.81 414.48 244.45 288.07 244.45 300.19 221.81 382.26 68.59 294.65 68.59 294.65 45.94 420.06 45.94 407.93 68.59 325.88 221.81"/></svg>